# xmcd
#
# Track frame offsets: 
#        150
#        24299
#        46737
#        68311
#        90023
#        104363
#        121425
#        139188
#        156075
#        174977
#        195153
#        216229
#        237043
#        259130
#        281493
#        301881
#        321819
#
# Disc length: 4578 seconds
#
# Revision: 0
# Processed by: cddbd v1.5.2PL0 Copyright (c) Steve Scherf et al.
# Submitted via: ExactAudioCopyFreeDBPlugin 1.0
#
DISCID=d011e011
DTITLE=彭羚 - True Legend Disc 2
DYEAR=1900
DGENRE=Pop
TTITLE0=Somewhere in Time
TTITLE1=彷彿是初戀
TTITLE2=假使你愛她
TTITLE3=三人世界
TTITLE4=一世愛着你
TTITLE5=Loving You
TTITLE6=有緣遇上
TTITLE7=只想你的愛
TTITLE8=情難自製
TTITLE9=奔向你
TTITLE10=若然是願意
TTITLE11=等你回來
TTITLE12=一個舊朋友
TTITLE13=BABY
TTITLE14=如果得不到愛情
TTITLE15=把你怨恨
TTITLE16=一個女人兩個男人 
EXTD=
EXTT0=
EXTT1=
EXTT2=
EXTT3=
EXTT4=
EXTT5=
EXTT6=
EXTT7=
EXTT8=
EXTT9=
EXTT10=
EXTT11=
EXTT12=
EXTT13=
EXTT14=
EXTT15=
EXTT16=
PLAYORDER=
